<svg xmlns="http://www.w3.org/2000/svg" width="24" height="24" viewBox="0 0 24 24" fill="none">
  <path fill-rule="evenodd" clip-rule="evenodd" d="M19.659 6.15104C20.2637 5.01081 20.0195 3.81804 19.2828 3.01152C18.5709 2.2321 17.4389 1.84265 16.2688 2.05967C11.6838 2.91008 8.58259 5.56118 6.65681 9.06061C4.75002 12.5255 4 16.8034 4 21C4 21.5523 4.44772 22 5 22C5.55228 22 6 21.5523 6 21C6 20.3169 6.02104 19.6361 6.06439 18.9615C12.1381 18.9315 15.3042 15.9958 16.7859 13.8402C17.709 12.4972 17.3596 10.9668 16.4649 9.91497C16.6308 9.7779 16.8102 9.62401 16.9979 9.45433C17.8512 8.68296 18.9178 7.54865 19.659 6.15104Z" fill="currentColor" />
</svg>
